<?xml version="1.0" encoding="UTF-8" standalone="no"?>
<svg
   xmlns:dc="http://purl.org/dc/elements/1.1/"
   xmlns:cc="http://creativecommons.org/ns#"
   xmlns:rdf="http://www.w3.org/1999/02/22-rdf-syntax-ns#"
   xmlns:svg="http://www.w3.org/2000/svg"
   xmlns="http://www.w3.org/2000/svg"
   xmlns:sodipodi="http://sodipodi.sourceforge.net/DTD/sodipodi-0.dtd"
   xmlns:inkscape="http://www.inkscape.org/namespaces/inkscape"
   width="1.3976824in"
   height="1.063588in"
   viewBox="0 0 134.17742 102.10453"
   version="1.1"
   id="svg3"
   sodipodi:docname="home.svg"
   inkscape:version="0.92.3 (2405546, 2018-03-11)">
  <metadata
     id="metadata9">
    <rdf:RDF>
      <cc:Work
         rdf:about="">
        <dc:format>image/svg+xml</dc:format>
        <dc:type
           rdf:resource="http://purl.org/dc/dcmitype/StillImage" />
        <dc:title></dc:title>
      </cc:Work>
    </rdf:RDF>
  </metadata>
  <defs
     id="defs7" />
  <sodipodi:namedview
     pagecolor="#ffffff"
     bordercolor="#666666"
     borderopacity="1"
     objecttolerance="10"
     gridtolerance="10"
     guidetolerance="10"
     inkscape:pageopacity="0"
     inkscape:pageshadow="2"
     inkscape:window-width="1600"
     inkscape:window-height="420"
     id="namedview5"
     showgrid="false"
     fit-margin-top="0"
     fit-margin-left="0"
     fit-margin-right="0"
     fit-margin-bottom="0"
     inkscape:zoom="0.61139945"
     inkscape:cx="196.06476"
     inkscape:cy="1.5775255"
     inkscape:window-x="0"
     inkscape:window-y="0"
     inkscape:window-maximized="0"
     inkscape:current-layer="svg3" />
  <path
     id="Selection #3"
     d="m 21.387133,85.527003 c 0,0 6.66,-22 6.66,-22 0,0 1.11,-13 1.11,-13 0.53,-3.28 3.02,-9.42 2.21,-12 -0.52,-1.69 -6.39,-9.27 -7.84,-11 0,0 -15.1800005,-17.4 -15.1800005,-17.4 -2.26,-1.7900004 -4.57,-1.4300004 -5.93,-2.5900004 -1.3,-1.21 -1.27,-3.11 0,-4.42 3.41,-3.73999996 9.3200005,-0.32 12.0200005,2.47 3.6,3.73 10.28,10.8800004 13.05,14.9400004 1.95,2.85 4.79,7.69 8.65,7.93 5.02,0.3 15.08,-8.96 19.58,-11.84 9.14,-5.85 26.09,-13.0400004 37,-13.0900004 26.249997,-0.12 15.729997,8.0700004 38.999997,5 -0.61,1.37 -1.27,2.4400004 -1.41,4.0000004 -0.2,2.22 4.6,14.8 -2.7,17.01 -2.32,0.7 -11.01,-2.9 -13.89,-3.59 -1.87,-0.75 -4.73,-1.65 -6.26,0 -2.01,2.6 1.67,4.85 3.28,6 5.61,4.06 11.59,12.02 1.98,15.58 0,0 -1.4,-4.86 -1.4,-4.86 -3.54,-7.12 -11.14,-2.56 -16.599997,-2.14 0,0 2,-5 2,-5 -2.4,-0.41 -5.68,-1.37 -8,-1 -5.29,0.86 -19.13,11.62 -24,15.09 -4.32,3.08 -9.96,5.76 -13.09,10 -3.16,4.3 -4.86,10.18 -7.28,14.91 -2.84,5.53 -7.01,8.35 -7.35,15 -0.29,5.76 3.05,6.37 4.72,10.999997 -12.43,-0.44 -8.88,-11.289997 -11,-19.999997 -6.37,5.96 -6.36,9.9 -2,17 -8.8,2.22 -8.69,-5.61 -7.33,-12 z"
     inkscape:connector-curvature="0"
     style="fill:none;stroke:#ffffff;stroke-width:5" />
</svg>
